<svg xmlns="http://www.w3.org/2000/svg" viewBox="0 0 79 79"><path fill="#000" d="M50.84 0h.55l2.92.86c1.24 5.5-1.02 11.32-5.1 15.1 6.1-.47 12.32 1.83 16.22 6.62 1.7 1.35 1.36 4.2-.68 5.06-6.85 4.1-7.1 15.43-.3 19.66 1.9 1.07 4.34 2.8 3.3 5.34-2.2 6.42-6 12.52-11.4 16.73-3.83 2.75-8.74 1.4-12.7-.32-5.5-2.37-10.36 2.9-15.85 1.85-2.96-.3-5.1-2.6-7.02-4.64-8.18-9.06-12.5-21.9-10.37-34.03.9-5.9 4.98-10.92 9.97-13.97 4.86-2.8 10.86-2.6 15.9-.34C35.8 9.4 42.5 1.42 50.8 0m-9.5 14.9c4.67-1 7.34-5.5 8.57-9.76-4.1 1.9-7.37 5.35-8.6 9.75m-25.23 16c-2.03 5.94-1.1 12.44.7 18.34 2.1 6.1 5.4 12.14 10.53 16.15 4.35 2.1 8.2-2.76 12.68-2.1 4.84-.7 9.2 4.34 13.86 1.8 3.97-3.24 6.6-7.8 8.67-12.44-2.27-3.08-6.35-5.36-7.1-9.55-2.4-6.7-.12-14.4 5.34-18.86-2.74-1.4-5.43-3.3-8.65-3.3-4.33-.4-8 2.4-12.15 3-4.52 0-8.4-3.75-13.04-2.6-5.07.7-9.25 4.76-10.78 9.55z"/></svg>