<svg xmlns="http://www.w3.org/2000/svg" viewBox="0 0 291.63 291.63"><path fill="#222220" d="M271.64 207.58c-.8-1.92-2.34-3.42-4.28-4.15-19.8-7.48-33.02-25.4-34.52-46.8-1.47-20.94 8.77-39.53 27.4-49.74 1.94-1.1 3.32-3 3.75-5.2.4-2.2-.2-4.5-1.6-6.2-15.5-19.3-37.6-30.9-59-30.9-10.2 0-18.1 1.75-25 3.94 4.4-3.37 8.45-7.3 11.9-11.7 12-15.4 17.44-33.86 14.94-50.6-.57-3.9-4-6.67-7.93-6.4-16.86 1.15-36 11.4-47.56 25.45C137.8 40 132 57.7 134.1 73.2c-1.62-.52-3.3-1.1-5-1.72-8.9-3.15-19.02-6.75-31.63-6.75-24.37 0-49.05 14.7-64.4 38.34-11 16.9-15.6 40.8-13 67.3 2.7 27.53 12.7 55.16 28.94 79.9 12.6 19.1 30.1 41.1 53.9 41.3h.5c9.83 0 16.44-2.95 22.83-5.8 6.75-3 13.1-5.85 24.7-5.9h.4c11.3 0 17.45 2.8 24 5.8 6.24 2.87 12.73 5.84 22.54 5.84h.46c23.2-.2 40.64-22.1 54.7-43.5 8.54-13 11.9-19.8 18.53-34.6.85-1.8.9-4 .1-5.9zM161.48 35.02c7.15-8.68 18.7-15.85 29.5-18.74-.55 14.64-8.53 26.6-12.37 31.52-7.4 9.55-18.8 16.44-29.8 18.28.2-7.2 2.5-18.64 12.7-31.06zm78.98 204.86c-11.17 17-26.07 36.55-42.3 36.7h-.32c-6.54 0-10.86-1.97-16.32-4.47-6.98-3.2-15.66-7.1-30.25-7.1h-.46c-14.7.1-23.5 4.1-30.7 7.2-5.6 2.5-10 4.5-16.7 4.5h-.3c-8.8-.1-21.4-4.1-41.4-34.5C32.8 198.2 26 142 45.8 111.4c12.6-19.43 32.5-31.5 51.8-31.5 10.1 0 18.1 2.87 26.6 5.9 8.2 2.93 16.7 5.95 26.5 5.95 9.28 0 16.8-2.85 24.1-5.6 8.1-3.1 16.55-6.27 28.8-6.27 14.56 0 29.67 6.98 41.68 18.97-18.86 13.7-28.93 35.12-27.26 58.93 1.7 24.6 15.6 45.6 36.87 56.55-4.58 9.74-7.7 15.63-14.3 25.66z"/></svg>