<svg xmlns="http://www.w3.org/2000/svg" viewBox="0 0 79 79"><path fill="#000" d="M6.02 1.93c14.13 7.76 28 15.98 42.03 23.92 7.95 4.78 16.37 8.8 24.1 13.9-18.63 10.98-37.7 21.22-56.4 32.06-3.18 1.78-6.26 3.76-9.65 5.1-.22-25-.06-49.96-.08-74.95m8.87 10.2C23.02 20.4 31.44 28.4 39.8 36.5c2.2-2.18 4.5-4.26 6.57-6.54-10.5-5.94-21.2-11.53-31.5-17.82m-3.77 3.4c.03 16.3.03 32.56 0 48.84C19.47 56.24 27.85 48.14 36.18 40 27.83 31.83 19.4 23.75 11.1 15.54M43.43 40c2.37 2.4 4.83 4.67 7.16 7.1 3.45-1.58 6.82-3.43 10.03-5.5 1.17-.62 1.4-2.6.24-3.35-3.1-2.17-6.57-3.73-9.8-5.68-2.6 2.43-5.13 4.93-7.65 7.44m-26.6 26.04c9.58-5.77 19.53-10.9 29.36-16.25-2.1-2.1-4.24-4.17-6.37-6.24-7.7 7.45-15.44 14.87-23 22.48z"/></svg>